PathFileType	4	(X/Y/Z)	C:/Users/Carlo/Dropbox/Carlos/SARAH/CongressoMarcha2025/WorkshopOpenSim/C3D/Caso01/Walking 01.c3d.trc
DataRate	CameraRate	NumFrames	NumMarkers	Units	OrigDataRate	OrigDataStartFrame	OrigNumFrames
100.000000	100.000000	4	85	mm	100.000000	140	375
Frame#	Time	PELO			PELA			PELL			PELP			LFEO			LFEA			LFEL			LFEP			LTIO			LTIA			LTIL			LTIP			LFOO			LFOA			LFOL			LFOP			LTOO			LTOA			LTOL			LTOP			RFEO			RFEA			RFEL			RFEP			RTIO			RTIA			RTIL			RTIP			RFOO			RFOA			RFOL			RFOP			RTOO			RTOA			RTOL			RTOP			LASI			RASI			RPSI			LTHI			LKNE			LTIB			LANK			LHEE			LTOE			RTHI			RKNE			RTIB			RANK			RHEE			RTOE			LPSI			LHipAngles			LKneeAngles			LAbsAnkleAngle			LAnkleAngles			RHipAngles			RKneeAngles			RAnkleAngles			RAbsAnkleAngle			LPelvisAngles			RPelvisAngles			LFootProgressAngles			RFootProgressAngles			LHipPower			LKneePower			LAnklePower			RHipPower			RKneePower			RAnklePower			LGroundReactionForce			LNormalisedGRF			LAnkleForce			RAnkleForce			RKneeForce			LKneeForce			RHipForce			LHipForce			LGroundReactionMoment			LAnkleMoment			RAnkleMoment			RKneeMoment			LKneeMoment			RHipMoment			LHipMoment			
		X1	Y1	Z1	X2	Y2	Z2	X3	Y3	Z3	X4	Y4	Z4	X5	Y5	Z5	X6	Y6	Z6	X7	Y7	Z7	X8	Y8	Z8	X9	Y9	Z9	X10	Y10	Z10	X11	Y11	Z11	X12	Y12	Z12	X13	Y13	Z13	X14	Y14	Z14	X15	Y15	Z15	X16	Y16	Z16	X17	Y17	Z17	X18	Y18	Z18	X19	Y19	Z19	X20	Y20	Z20	X21	Y21	Z21	X22	Y22	Z22	X23	Y23	Z23	X24	Y24	Z24	X25	Y25	Z25	X26	Y26	Z26	X27	Y27	Z27	X28	Y28	Z28	X29	Y29	Z29	X30	Y30	Z30	X31	Y31	Z31	X32	Y32	Z32	X33	Y33	Z33	X34	Y34	Z34	X35	Y35	Z35	X36	Y36	Z36	X37	Y37	Z37	X38	Y38	Z38	X39	Y39	Z39	X40	Y40	Z40	X41	Y41	Z41	X42	Y42	Z42	X43	Y43	Z43	X44	Y44	Z44	X45	Y45	Z45	X46	Y46	Z46	X47	Y47	Z47	X48	Y48	Z48	X49	Y49	Z49	X50	Y50	Z50	X51	Y51	Z51	X52	Y52	Z52	X53	Y53	Z53	X54	Y54	Z54	X55	Y55	Z55	X56	Y56	Z56	X57	Y57	Z57	X58	Y58	Z58	X59	Y59	Z59	X60	Y60	Z60	X61	Y61	Z61	X62	Y62	Z62	X63	Y63	Z63	X64	Y64	Z64	X65	Y65	Z65	X66	Y66	Z66	X67	Y67	Z67	X68	Y68	Z68	X69	Y69	Z69	X70	Y70	Z70	X71	Y71	Z71	X72	Y72	Z72	X73	Y73	Z73	X74	Y74	Z74	X75	Y75	Z75	X76	Y76	Z76	X77	Y77	Z77	X78	Y78	Z78	X79	Y79	Z79	X80	Y80	Z80	X81	Y81	Z81	X82	Y82	Z82	X83	Y83	Z83	X84	Y84	Z84	X85	Y85	Z85	

141	1.4	146.0363922119141	950.4265136718755	-576.6778564453127	155.3223724365235	949.5151977539067	-448.0894775390627	274.5289916992189	945.4342651367192	-585.9923095703127	151.0813751220704	1079.2529296875	-576.1291503906252	266.8554077148439	537.4888305664065	-465.9613952636721	289.0047607421876	656.484069824219	-53.2572937011719	692.630798339844	585.831481933594	-502.7509460449221	210.2878417968751	947.949829101563	-581.2739868164065	224.8358612060548	299.075408935547	-823.7209472656255	174.0538482666016	-38.01846313476564	-593.1149902343752	631.2944335937502	234.5855560302736	-828.4838256835942	264.8710021972657	526.2294921875002	-482.8567199707034	253.1526031494142	165.922348022461	-747.7015380859377	262.5455932617189	292.2321777343751	-570.5625000000002	469.7075805664065	177.5185241699219	-767.453308105469	232.2630004882814	342.9308166503907	-872.8105468750005	260.1158447265626	106.9195175170899	-705.9984130859377	263.2468872070314	149.0228118896485	-646.952087402344	332.3008117675782	110.7848815917969	-712.5823974609377	253.1526336669923	165.922348022461	-747.7014770507815	86.49463653564456	532.9365234375002	-499.3173828125002	131.0787963867188	605.791687011719	-81.71328735351565	510.3801269531252	529.939880371094	-544.0493774414065	81.78486633300784	952.903198242188	-572.0819091796877	97.72048187255865	93.92834472656253	-567.5979003906252	80.45706176757815	28.32270812988283	-148.6263122558594	521.6619873046877	101.8588638305665	-548.887878417969	86.99983215332034	513.1804199218752	-502.390075683594	81.01167297363284	82.03472137451175	-413.3683776855471	77.40518188476565	299.2759704589845	-416.934020996094	298.2462768554689	85.70494079589847	-409.4785461425784	84.9606628417969	78.53472900390628	-630.6047363281252	79.69533538818362	83.20141601562503	-340.9562072753907	78.49318695068362	155.6151733398438	-342.1447753906251	152.1069335937501	84.42481231689456	-339.6596069335939	81.01166534423831	82.03472137451175	-413.368347167969	260.4078674316407	1042.91455078125	-537.020935058594	46.051082611084	1051.242797851563	-521.4821777343752	85.98469543457034	1050.230590820313	-719.377136230469	343.1521606445314	750.9075927734377	-531.5913085937502	324.273895263672	544.0080566406252	-470.9226684570315	308.8817443847657	400.472595214844	-656.9932861328127	269.770721435547	291.9458923339845	-824.247436523438	218.4607238769532	318.0952453613282	-891.783325195313	243.9006652832032	137.8329772949219	-759.6172485351565	-33.75475692749025	808.2155761718755	-534.5044555664065	29.81079673767091	533.3372192382815	-493.3356018066409	17.70174980163575	374.986053466797	-526.884948730469	51.27380752563479	93.05947113037112	-569.6477661132815	102.6533432006837	61.13765716552737	-640.3549804687502	90.51255798339847	63.54386901855472	-414.6602783203127	198.6666717529298	1046.422729492188	-724.626403808594	-8.549710273742679	1.663864970207215	16.66754341125489	5.019313335418703	15.2569694519043	72.96170043945315	0	0	2.093026399612428	3.38756322860718	-12.44224643707276	2.143399477005006	2.110666275024415	1.539340496063233	10.26156234741211	2.761964559555055	-8.228559494018558	18.48665428161622	0.07904062420129779	1.502393126487733	9.788956642150882	0	0	9.785550117492679	-2.242595195770265	-4.133501052856447	0.2440387904644014	2.242595195770265	4.133501052856447	0.2440387904644014	2.48363757133484	-5.504749774932863	-35.25255203247072	0.9511249661445622	-1.041290998458863	-90.92305755615237	0	-0.03165833652019502	0	0	0.1192865371704102	0	0	0.01432477962225676	0	0	-0.1107191592454911	0	0	-0.02168224565684796	0	0	0.00902148894965649	0	nan	nan	nan	nan	nan	nan	-0.02501730620861055	0.04033989459276201	-0.07176297903060916	0.005548902787268164	-0.006175059825181965	-0.1434453427791596	0.0400284305214882	0.5816155076026919	-0.1226771622896195	-0.09474731236696249	0.03159243613481523	-0.1244396194815636	0.04116794094443323	1.354064702987671	0.1901996433734895	-0.06111559271812442	0.8833627104759221	-0.1171805784106255	nan	nan	nan	0	-5.462855815887453	-18.52979087829591	3.804364043995763e-16	-0.04151932522654535	-15.17643833160401	-8.874775886535648	-0.1291977316141129	-15.53116893768311	5.768450260162355	-6.397194862365726	96.90239715576178	-34.84630966186525	2.723097801208497	-42.95212936401369	-38.05294799804689	19.62792778015137	21.71335983276368	
142	1.41	146.3294219970704	952.9963989257817	-560.792907714844	154.4216766357422	951.865844726563	-432.125671386719	274.9347534179689	948.9103393554692	-568.917175292969	150.478500366211	1081.853149414063	-559.9216308593752	265.4996643066407	544.6367797851565	-438.0042114257815	280.9335327148439	674.2901611328127	-29.16897583007814	690.8775024414065	592.339782714844	-469.1905517578127	210.6365509033204	950.9727172851567	-564.7938232421877	225.0835876464845	292.1290588378907	-785.6584472656255	171.9017791748047	-34.79486083984376	-542.0247802734377	630.9825439453127	226.4728088378907	-785.158325195313	263.5892639160157	532.7011718750002	-454.437438964844	252.1138458251954	162.6173095703126	-703.1563110351565	261.1117553710939	297.2218627929689	-532.2139892578127	468.857360839844	172.0315399169922	-721.9780883789065	233.0895233154298	333.5372619628907	-836.7418823242192	258.4553222656251	105.6440048217774	-658.6277465820315	261.4546203613282	150.5121765136719	-601.6469726562502	330.7031555175782	108.782096862793	-664.9016723632815	252.1138763427736	162.6173095703126	-703.1562500000002	86.51614379882815	532.882995605469	-493.9810180664065	128.6618957519532	595.8294677734377	-73.94934082031253	511.2144775390627	531.1030883789065	-536.328308105469	82.02232360839847	955.0199584960942	-556.7921142578127	97.83078765869146	94.24091339111331	-566.7287597656252	75.16184234619143	24.27187347412111	-148.3671569824219	521.8653564453127	101.1758346557618	-542.5925903320315	87.02492523193362	513.1588134765627	-497.2521972656252	80.99341583251956	81.66520690917972	-412.5672912597659	77.33826446533206	298.9191894531251	-415.1806640625002	298.2237854003907	85.36917114257815	-408.4760742187502	85.12831115722659	79.12150573730472	-629.8134765625002	79.61511230468753	82.51311492919925	-340.1518859863282	78.39673614501956	154.9311065673829	-341.0230102539064	152.0252075195313	83.74776458740237	-338.7881469726564	80.99340820312503	81.66522216796878	-412.5672912597659	259.6812744140626	1046.182983398438	-519.8713378906252	45.14184570312501	1052.999267578125	-506.3184814453127	87.32979583740237	1052.956787109375	-703.6140136718752	343.4335327148439	756.873962402344	-508.2527465820315	322.9859619140626	551.083435058594	-442.2187805175784	308.2838439941407	400.1640930175784	-622.5281982421877	269.999725341797	284.8636474609376	-785.6030273437505	219.4151153564454	307.8716430664064	-855.060913085938	242.7391510009767	134.3362121582032	-713.908630371094	-33.17480850219728	809.0097656250005	-523.351989746094	29.79789352416994	533.1206054687502	-488.3255310058596	17.76562309265137	375.2388305664064	-524.071472167969	51.41210937500003	93.48174285888675	-569.3709106445315	102.6256713867188	61.37517166137698	-640.243835449219	90.52839660644534	63.30361938476565	-414.5285644531252	200.003875732422	1049.393798828125	-707.8576660156252	-7.984438419342045	1.951878905296327	18.3126335144043	5.699725627899172	15.12445163726807	72.21147918701175	0	0	2.470999240875245	3.341460704803469	-12.25826644897462	2.528672695159913	1.866738677024842	1.823983430862428	8.991382598876957	2.616686344146729	-8.64387130737305	17.71098709106446	-0.06606249511241916	2.177898406982423	10.11791324615479	0	0	10.11051940917969	-1.844179630279542	-3.60047483444214	0.3874160647392275	1.844179630279542	3.60047483444214	0.3874160647392275	2.377213239669801	-5.011895179748537	-38.01003265380861	0.9639784097671513	-1.090318679809571	-90.67083740234378	0	-0.0783360302448273	0	0	0.1618728786706925	0	0	0.01243966538459063	0	0	-0.1165513247251511	0	0	-0.02297336794435979	0	0	0.009037719108164314	0	nan	nan	nan	nan	nan	nan	-0.01572946459054948	0.03090351447463037	-0.08229779452085498	0.005504063330590727	-0.006306417752057317	-0.1439387053251267	0.04058723524212839	0.5787039399147036	-0.1151039078831673	-0.08439127355813983	0.04247242584824563	-0.1254289150238038	0.035517405718565	1.32260537147522	0.2037029117345811	-0.0609126687049866	0.8140504956245427	-0.1229306757450104	nan	nan	nan	-1.515824539659642e-15	-2.395435333251954	-19.45241928100587	1.091719325194591e-16	-0.002093818737193943	-15.43127346038819	-8.398347854614261	-0.08756539225578311	-16.66089630126954	4.100012779235842	-3.341142416000368	89.03281402587893	-36.11856842041017	2.542859792709351	-45.79479598999025	-29.36045455932619	19.97530555725098	35.8522186279297	
143	1.42	146.5731811523438	955.1713256835942	-544.852722167969	153.4185943603516	953.8311157226567	-416.1150512695315	275.2756347656251	951.9439086914067	-551.7298583984377	149.8673706054688	1084.050415039063	-543.686218261719	263.9753723144532	551.4291992187502	-410.8803405761721	272.3135681152345	690.803161621094	-6.025848388671879	688.8497314453127	598.9036865234377	-435.9742736816409	210.9281616210939	953.5769042968755	-548.229919433594	225.2867584228517	283.9405822753907	-747.124694824219	168.8310546875001	-31.46118164062501	-489.720886230469	630.7202758789065	216.8533935546876	-740.405212402344	262.1459045410157	538.7802734375002	-426.7805480957034	251.0086059570314	158.6873321533204	-657.902770996094	259.4657287597657	301.8171997070314	-494.0035400390627	467.9329528808596	166.0430908203126	-675.5195922851565	233.8932037353517	322.6397094726564	-800.1958618164067	256.7137145996095	104.0365524291993	-610.4717407226565	259.5328063964845	151.7465515136719	-555.8386840820315	329.0218200683595	106.4884490966797	-616.3440551757815	251.0085754394532	158.6873474121094	-657.9028320312502	86.61455535888675	532.7778320312502	-488.6383056640627	126.1544036865235	585.794860839844	-66.4976501464844	512.0487060546877	532.2318115234377	-528.4180908203127	82.2182312011719	956.7658081054692	-541.4755859375002	97.98242950439459	94.57234191894534	-565.9108886718752	70.78630065917972	20.21481323242188	-148.2373352050782	522.0842895507815	100.5181427001954	-537.2376708984377	87.12535095214847	513.0881958007815	-492.1103515625002	80.9841003417969	81.30888366699222	-411.8247070312502	77.35293579101565	298.5727844238282	-413.4700012207034	298.2104797363282	84.97223663330081	-407.4919433593752	85.34387207031253	79.7365646362305	-629.0757446289065	79.53086090087893	81.83298492431643	-339.407684326172	78.32047271728518	154.2542724609376	-339.9561157226564	151.9396362304688	83.05410003662112	-337.9634399414064	80.98410797119143	81.30887603759768	-411.8247070312502	258.9144897460939	1049.01416015625	-502.6433715820315	44.19736480712892	1054.398559570313	-491.170104980469	88.78311920166018	1055.26171875	-687.857604980469	343.6524047851564	762.5555419921877	-485.2030334472659	321.5176086425782	557.858825683594	-414.2788696289065	307.6072387695314	398.9412536621096	-588.1569824218752	270.1703491210939	276.5136718750001	-746.3807373046877	220.2695159912111	296.0758666992189	-817.6078491210942	241.5404815673829	130.140121459961	-667.3699951171877	-32.54499435424806	809.5753784179692	-512.240417480469	29.86215782165529	532.8506469726565	-483.3316955566409	17.90134429931641	375.460174560547	-521.119323730469	51.5928764343262	93.92197418212893	-569.0471801757815	102.6142883300782	61.61891555786136	-640.108581542969	90.5444259643555	63.06164169311526	-414.3697509765627	201.4436187744142	1051.9658203125	-691.039489746094	-7.472640991210941	2.262207031250001	19.84467506408692	6.432817935943607	15.05109882354737	71.14361572265628	0	0	2.838425159454347	3.323702335357668	-12.18732643127442	2.903930187225343	1.633989334106446	2.096673250198365	7.723412513732914	2.455788850784303	-8.921664237976078	16.95179748535157	-0.1833911687135697	2.723660469055177	10.45153713226319	0	0	10.43960475921631	-1.464121818542481	-3.044568061828615	0.5185817480087282	1.464121818542481	3.044568061828615	0.5185817480087282	2.2326397895813	-4.507901668548586	-40.95448684692384	0.9576650857925419	-1.149614453315735	-90.41465759277347	0	-0.1080578565597535	0	0	0.2002483159303666	0	0	0.01209058705717326	0	0	-0.1184254959225655	0	0	-0.02211155928671361	0	0	0.009236215613782409	0	nan	nan	nan	nan	nan	nan	-0.007629388477653268	0.02457416988909246	-0.09477961808443075	0.005109699908643963	-0.004801061470061542	-0.1439543962478638	0.03965434804558755	0.5751888751983645	-0.1075373813509942	-0.07326374202966693	0.05936729162931445	-0.1233988478779793	0.03236430883407594	1.300371408462525	0.2109140753746034	-0.05255507677793506	0.7564681172370915	-0.1280185133218766	nan	nan	nan	-2.36847590939264e-16	0.2112915813922883	-20.53717613220216	-5.591822997175234e-16	0.08728413283824923	-15.65004539489747	-7.66588115692139	0.0001946014090208338	-16.2363567352295	2.274011850357057	-0.7590819001197819	83.94214630126956	-35.97084426879884	2.333731174468995	-47.26583099365236	-21.17993927001954	21.26301383972169	46.03751373291017	
144	1.43	146.7599792480469	956.923950195313	-528.8416137695315	152.3282165527344	955.385375976563	-400.0446472167971	275.5419921875001	954.4941406250005	-534.4382324218752	149.254135131836	1085.818359375	-527.4097290039065	262.3111572265626	557.7508544921877	-384.6298522949221	263.1909484863282	705.8632812500002	16.19290161132813	686.5505371093752	605.434020996094	-403.1809692382815	211.1539916992189	955.728149414063	-531.5784912109377	225.4355010986329	274.600799560547	-708.0428466796877	165.1587219238282	-27.87698364257814	-436.3489379882815	630.4986572265627	206.192596435547	-694.3364868164065	260.5675048828126	544.3621826171877	-399.9223632812502	249.9112854003907	154.2802886962891	-611.9468994140627	257.7220153808595	306.0709533691407	-456.000671386719	466.9963989257815	159.8070526123047	-628.1993408203127	234.6247100830079	310.3241577148439	-763.0669555664065	255.0068206787111	102.2656631469727	-561.5734863281252	257.6103820800782	152.8625488281251	-509.5914306640627	327.3685302734376	104.1079254150391	-566.9909667968752	249.9112854003907	154.2802734375001	-611.9468383789065	86.7918395996094	532.609558105469	-483.2581176757815	123.5148162841797	575.6782836914065	-59.33496093750003	512.8740234375002	533.3175048828127	-520.2400512695315	82.36596679687503	958.1196289062505	-526.104675292969	98.17398071289068	94.91437530517581	-565.1293945312502	67.12458038330081	16.12215423583985	-148.2121582031251	522.3320312500002	99.86093139648443	-532.605895996094	87.30290222167972	512.956970214844	-486.9341125488284	80.98094177246097	80.96939849853518	-411.1250915527346	77.44069671630862	298.239959716797	-411.803649902344	298.2033081054689	84.52327728271487	-406.5095520019534	85.60694885253909	80.36627197265628	-628.3754882812502	79.43894195556643	81.17043304443362	-338.7083129882814	78.25885772705081	153.5939483642579	-338.9344787597657	151.8464050292969	82.35505676269534	-337.1697998046876	80.98094177246097	80.96941375732425	-411.1250915527346	258.1138916015626	1051.370727539063	-485.3432922363284	43.23306274414064	1055.425048828125	-476.0050048828127	90.31993103027347	1057.12158203125	-672.0909423828127	343.7959899902345	767.8629150390627	-462.4494934082034	319.8938903808595	564.2229614257815	-387.1477966308596	306.8707885742189	396.8415222167971	-553.884948730469	270.2752380371095	267.0281372070314	-706.525573730469	220.9837951660157	282.811737060547	-779.319702148438	240.3791809082032	125.4236907958985	-619.9990844726565	-31.87668037414552	809.9028930664067	-501.150085449219	30.00541305541994	532.5151977539065	-478.3293151855471	18.11080360412598	375.6411132812501	-518.0381469726565	51.8132133483887	94.37371063232425	-568.684265136719	102.6231994628907	61.86790847778323	-639.9522705078127	90.55954742431643	62.82512664794925	-414.1885681152346	202.9581756591798	1054.106323242188	-674.173278808594	-7.01959323883057	2.609892129898072	21.25666046142579	7.212578296661381	14.97836208343507	69.75926208496097	0	0	3.205924510955812	3.330654621124269	-12.21510410308839	3.280267238616945	1.417572736740113	2.341499090194703	6.455770969390873	2.276625633239747	-9.083894729614261	16.2103614807129	-0.2786768376827241	3.166520595550539	10.79623794555664	0	0	10.77956676483155	-1.108497381210328	-2.475791215896607	0.6364669203758242	1.108497381210328	2.475791215896607	0.6364669203758242	2.060614824295045	-4.025375843048097	-44.08163070678712	0.9337158799171452	-1.219836235046387	-90.159049987793	0	-0.123995028436184	0	0	0.2374857366085054	0	0	0.01277666538953782	0	0	-0.1159067079424859	0	0	-0.02004904486238957	0	0	0.00954962428659201	0	nan	nan	nan	nan	nan	nan	-0.0009467342752031986	0.02067522704601289	-0.1088194623589516	0.004505428951233627	-0.002222829731181265	-0.1435061693191529	0.03729557991027833	0.5712364315986636	-0.1004913896322251	-0.06179344654083255	0.08218312263488772	-0.1198118329048157	0.03107756190001966	1.28633451461792	0.2105608433485032	-0.03717735409736635	0.7112917900085451	-0.1311309486627579	nan	nan	nan	-1.042129410720673e-15	2.238358020782472	-21.6823959350586	-2.420286267798225e-16	0.2184249162673951	-15.79927825927735	-6.910966396331791	0.1265781223773957	-14.85320091247559	0.4949824512004855	1.236908078193665	80.75881195068362	-34.47575759887697	2.163353919982911	-47.06240844726564	-13.78845500946046	22.95366668701173	52.86948394775393	
